<svg xmlns="http://www.w3.org/2000/svg" width="200" height="200" fill="none" viewBox="0 0 200 200"><path fill="#EBE1FF" d="M200.04 100.421 99.579-.04-.008 99.547l100.461 100.461 99.587-99.587Z"/><path fill="#E09090" d="M107.285 143.039c-.618-.089-1.236-.177-1.855-.177.089.971 1.06 12.009 12.451 13.686l.265-1.766c-9.36-1.412-10.685-9.889-10.861-11.743Z"/><path fill="#fff" d="m98.366 174.473-.97-1.412c4.149-2.826 6.18-7.064 5.915-12.539-.176-4.15-1.677-7.506-1.766-7.594l1.59-.706c0 .265 6.446 14.658-4.769 22.251Z"/><path fill="#BCBEC0" d="M111.7 174.562a2.649 2.649 0 1 0 0-5.298 2.649 2.649 0 0 0 0 5.298Z"/><path fill="#F9B9B8" d="M92.009 161.758a2.649 2.649 0 1 0 0-5.298 2.649 2.649 0 0 0 0 5.298Z"/><path fill="#BCBEC0" d="M93.526 120.124c1.79-.479 2.8-2.51 2.258-4.536-.543-2.025-2.434-3.278-4.224-2.798-1.79.479-2.801 2.51-2.258 4.536.543 2.025 2.434 3.278 4.224 2.798ZM117.355 113.686c1.79-.48 2.801-2.511 2.258-4.537-.543-2.025-2.434-3.278-4.224-2.798s-2.801 2.51-2.258 4.536c.543 2.025 2.434 3.278 4.224 2.799Z"/><path fill="#BCBEC0" d="m113.554 138.094-1.501.353c-7.241 1.942-14.658-2.119-17.042-9.183l-4.062-12.274 3.267-1.06 4.062 12.186c1.766 5.298 7.417 8.388 12.804 6.887l1.501-.353c4.856-1.325 7.77-6.358 6.534-11.214-.088-.177-.088-.353-.177-.53l-4.061-12.274 3.267-1.059 4.062 12.273c2.207 6.623-1.413 13.864-8.036 15.983a.955.955 0 0 1-.618.265Z"/><path fill="#E09090" d="m57.483 73.635 55.1-17.307c4.326-1.413 9.006 1.06 10.331 5.386l15.452 49.095a2.608 2.608 0 0 1-1.677 3.267l-68.345 21.545-16.247-51.655c-1.413-4.327 1.06-9.007 5.386-10.331Z"/><path fill="#F9B9B8" d="m69.227 69.926 49.978-15.718c3.797-1.147 7.859.884 9.007 4.68l16.512 52.627-63.664 20.044-16.513-52.626c-1.236-3.797.883-7.77 4.68-9.007Z"/><path fill="#000" d="M99.16 118.108c1.79-.48 2.801-2.511 2.258-4.536-.543-2.026-2.434-3.279-4.224-2.799s-2.801 2.511-2.258 4.536c.543 2.026 2.434 3.279 4.224 2.799ZM123.012 111.755c1.79-.48 2.801-2.511 2.258-4.537-.543-2.025-2.434-3.278-4.224-2.798s-2.801 2.51-2.258 4.536c.543 2.025 2.434 3.278 4.224 2.799Z"/><path fill="#000" d="m119.205 136.151-1.501.353c-7.24 1.943-14.658-2.119-17.042-9.183L96.6 115.047l3.268-1.059 4.061 12.185c1.766 5.298 7.418 8.389 12.804 6.888l1.501-.354c4.857-1.324 7.77-6.357 6.534-11.214-.088-.176-.088-.353-.176-.53l-4.062-12.273 3.267-1.06 4.062 12.274c2.207 6.622-1.413 13.863-8.036 15.982a.8.8 0 0 1-.618.265Z"/><path fill="#fff" d="M64.724 25.864c.618-.53 20.75-14.216 20.75-14.216l4.239 20.927 11.567-7.064-8.3 51.567-6.887-29.404-14.57 7.77-6.799-29.58ZM113.996 11.736l19.337 5.916-27.196 31.965 7.859-37.88Z"/></svg>